:SAMPLES-PER-SECOND 30
:FULLY-SPECIFIED
:DEGREES
290
root  3.44678 40.7762 -2.16424 18.577 85.2198 17.6911
RightUpLeg  3.95478 -9.79863 -8.25112
RightLeg  6.4014 -4.83329 3.25162
RightFoot  -7.6815 -0.070552 0.625834
RightToes  0.00048216 0.542163 -0.142577
Spine  -2.01182 1.41844 4.46399
Spine1  8.11679 2.60454 -4.58594
HEad  -0.508208 -3.90636 0.041454
LeftShoulder1  8.80831 -12.949 -46.7089
LeftArm  -4.46756 21.7681 -27.4197
LeftForeArm  19.5934 -22.6453 -3.94616
LeftHand  -0.25398 0.0180481 5.50724
RightShoulder  5.83971 9.77542 37.9353
RightArm  -1.23077 -16.3036 35.7597
RightForeArm  3.43557 16.8134 5.98802
RightHand  -0.324962 -2.55945 -12.7568
LeftUpLeg  5.50332 2.61878 -2.44611
LeftLeg  0.0900395 13.1672 -4.28307
LeftFoot  -5.53228 -0.153996 3.69225
LeftToes  1.06244e-005 4.65856e-005 -8.18505e-006
291
root  3.45519 40.7473 -2.1879 23.2073 85.7712 22.6094
RightUpLeg  4.3517 -10.0183 -8.56268
RightLeg  6.58593 -5.06224 3.2609
RightFoot  -7.97164 -0.0730109 0.63931
RightToes  0.00048216 0.542163 -0.142577
Spine  -2.11788 1.19131 3.74577
Spine1  8.8153 2.2222 -3.76653
HEad  -2.01829 -3.77471 0.13345
LeftShoulder1  8.87637 -12.9523 -47.0684
LeftArm  -4.30467 21.7923 -27.0763
LeftForeArm  20.5883 -24.924 -4.23235
LeftHand  -0.25398 0.0180481 5.50724
RightShoulder  5.88257 9.74165 38.3538
RightArm  -0.283144 -15.8954 34.8346
RightForeArm  0.294699 18.2132 5.74404
RightHand  -0.446067 -1.6897 -13.7285
LeftUpLeg  5.5983 2.52027 -2.64443
LeftLeg  0.546732 12.6596 -4.14734
LeftFoot  -5.85269 -0.149034 3.84385
LeftToes  1.06244e-005 4.65856e-005 -8.18505e-006
292
root  3.47708 40.7199 -2.22388 29.3709 86.2524 29.1356
RightUpLeg  4.80648 -10.2263 -8.9309
RightLeg  6.85146 -5.16934 3.21834
RightFoot  -8.32281 -0.0795271 0.876723
RightToes  0.00048216 0.542163 -0.142577
Spine  -2.16495 0.924125 3.24602
Spine1  9.58439 1.87042 -3.31256
HEad  -3.32938 -3.57073 0.379667
LeftShoulder1  8.99738 -12.9981 -47.5874
LeftArm  -3.90643 21.2908 -26.3797
LeftForeArm  22.2649 -26.1254 -4.41818
LeftHand  -0.25398 0.0180481 5.50724
RightShoulder  5.92596 9.73618 38.6859
RightArm  0.212204 -15.5033 34.1249
RightForeArm  -1.22848 19.6093 5.42795
RightHand  -0.544389 -0.998177 -14.2631
LeftUpLeg  5.88912 2.45383 -2.86733
LeftLeg  0.808231 12.1308 -4.07828
LeftFoot  -6.1349 -0.139075 3.87039
LeftToes  1.06244e-005 4.65856e-005 -8.18505e-006
293
root  3.51179 40.6982 -2.28156 35.3031 86.6652 35.2889
RightUpLeg  4.98195 -10.3442 -9.1361
RightLeg  7.30056 -5.57017 3.02639
RightFoot  -8.65634 -0.0864151 1.18022
RightToes  0.00048216 0.542163 -0.142577
Spine  -2.09569 0.745826 3.05166
Spine1  9.82653 1.62537 -3.01724
HEad  -3.70899 -3.56615 0.605693
LeftShoulder1  9.10201 -13.0948 -47.8649
LeftArm  -3.11795 20.6328 -26.0153
LeftForeArm  22.8437 -25.8453 -4.32678
LeftHand  -0.25398 0.0180481 5.50724
RightShoulder  5.86196 9.67772 38.4099
RightArm  -0.307492 -15.537 34.1331
RightForeArm  -0.976984 20.5308 5.18133
RightHand  -0.572879 -0.794835 -14.3708
LeftUpLeg  6.06389 2.4148 -3.00739
LeftLeg  1.06207 11.6359 -4.04078
LeftFoot  -6.45308 -0.120419 3.73085
LeftToes  1.06244e-005 4.65856e-005 -8.18505e-006
294
root  3.55215 40.6594 -2.35745 40.0669 86.9978 40.0789
RightUpLeg  4.66443 -10.651 -9.19513
RightLeg  8.31041 -5.8044 2.65959
RightFoot  -9.16162 -0.0888719 1.39281
RightToes  0.00048216 0.542163 -0.142577
Spine  -1.94619 0.624517 3.01716
Spine1  9.59457 1.42568 -2.80323
HEad  -3.32644 -3.77021 0.809608
LeftShoulder1  9.15376 -13.1843 -47.8795
LeftArm  -2.20414 19.9932 -26.0439
LeftForeArm  22.0361 -24.5422 -4.08948
LeftHand  -0.25398 0.0180481 5.50724
RightShoulder  5.73609 9.601 37.7375
RightArm  -0.825578 -15.7513 34.5307
RightForeArm  -0.63196 20.9578 5.07971
RightHand  -0.577412 -0.768089 -14.4042
LeftUpLeg  5.82823 2.48717 -3.03347
LeftLeg  1.80504 11.156 -3.99143
LeftFoot  -7.03668 -0.0911866 3.55357
LeftToes  1.06244e-005 4.65856e-005 -8.18505e-006
295
root  3.59347 40.5782 -2.42189 41.255 86.9817 41.2463
RightUpLeg  3.69546 -11.6088 -9.12121
RightLeg  10.3941 -4.8067 1.76688
RightFoot  -10.2075 -0.0854459 1.70086
RightToes  0.00048216 0.542163 -0.142577
Spine  -1.69275 0.582773 2.7887
Spine1  9.30431 1.29831 -2.6681
HEad  -2.82902 -3.98836 1.11573
LeftShoulder1  9.14557 -13.2085 -47.7658
LeftArm  -1.47764 19.3681 -26.1708
LeftForeArm  20.8466 -22.9707 -3.89713
LeftHand  -0.25398 0.0180481 5.50724
RightShoulder  5.69334 9.63418 37.3163
RightArm  -0.427957 -15.6914 34.598
RightForeArm  -1.13943 21.1682 5.08568
RightHand  -0.578612 -0.757988 -14.4045
LeftUpLeg  5.30796 2.80839 -2.97086
LeftLeg  3.12382 10.7489 -4.04155
LeftFoot  -7.99145 -0.049081 3.31778
LeftToes  1.06244e-005 4.65856e-005 -8.18505e-006
296
root  3.63239 40.458 -2.44412 35.6069 86.231 35.7158
RightUpLeg  1.83361 -12.3429 -8.77119
RightLeg  13.9685 -3.08282 0.0767538
RightFoot  -11.4964 -0.0730889 2.78951
RightToes  0.00048216 0.542163 -0.142577
Spine  -1.1188 0.770473 2.09452
Spine1  9.09624 1.39074 -2.46786
HEad  -2.62453 -4.00672 1.59734
LeftShoulder1  9.09518 -13.1706 -47.6081
LeftArm  -1.1423 18.7994 -26.1544
LeftForeArm  20.3812 -21.5761 -3.94855
LeftHand  -0.25398 0.0180481 5.50724
RightShoulder  5.77628 9.79596 37.4089
RightArm  0.553179 -15.2208 34.1359
RightForeArm  -1.77442 21.4422 5.10016
RightHand  -0.533811 -1.05109 -14.1338
LeftUpLeg  4.93997 3.37519 -2.87509
LeftLeg  4.53642 10.7687 -4.29412
LeftFoot  -9.14171 -0.000802415 2.90005
LeftToes  1.06244e-005 4.65856e-005 -8.18505e-006
297
root  3.6716 40.3297 -2.43028 26.9089 84.6267 27.348
RightUpLeg  -0.896486 -10.2868 -8.30488
RightLeg  19.0689 -3.60195 -1.69678
RightFoot  -11.8816 -0.0605039 4.72228
RightToes  0.00048216 0.542163 -0.142577
Spine  -0.0885687 1.18645 1.11338
Spine1  8.89427 1.71366 -2.23877
HEad  -2.71596 -3.66019 2.20535
LeftShoulder1  9.05668 -13.1256 -47.5336
LeftArm  -0.896076 18.4192 -25.8498
LeftForeArm  20.3686 -20.5102 -4.12001
LeftHand  -0.25398 0.0180481 5.50724
RightShoulder  5.88287 9.94776 37.7014
RightArm  1.11348 -14.4067 33.6835
RightForeArm  -1.6643 21.7401 5.06902
RightHand  -0.458511 -1.58396 -13.7452
LeftUpLeg  5.01176 3.99217 -2.85415
LeftLeg  5.58459 11.6345 -4.58558
LeftFoot  -10.2179 0.0381163 2.37969
LeftToes  1.06244e-005 4.65856e-005 -8.18505e-006
298
root  3.73124 40.2159 -2.41374 20.2676 82.6234 21.1732
RightUpLeg  -4.14792 -7.43351 -8.15044
RightLeg  25.3302 -5.33203 -2.96072
RightFoot  -10.7137 -0.106963 6.22605
RightToes  0.00048216 0.542163 -0.142577
Spine  1.17156 1.51185 0.357714
Spine1  8.78183 1.99606 -2.2663
HEad  -2.86772 -2.886 2.79553
LeftShoulder1  9.08853 -13.1311 -47.6872
LeftArm  -0.840418 18.2999 -25.1508
LeftForeArm  20.3513 -19.6543 -4.32076
LeftHand  -0.25398 0.0180481 5.50724
RightShoulder  5.91735 9.98517 37.8308
RightArm  0.801841 -13.392 33.8491
RightForeArm  -1.16386 21.9406 5.0232
RightHand  -0.453149 -1.6511 -13.8043
LeftUpLeg  5.36541 4.48239 -2.92108
LeftLeg  6.4081 13.1825 -4.66
LeftFoot  -11.1867 0.0647118 1.86742
LeftToes  1.06244e-005 4.65856e-005 -8.18505e-006
299
root  3.84549 40.1395 -2.40892 15.7606 80.869 17.0758
RightUpLeg  -7.55458 -7.11774 -8.01425
RightLeg  31.446 -5.29471 -3.70965
RightFoot  -8.61733 -0.206463 6.29177
RightToes  0.00048216 0.542163 -0.142577
Spine  2.24815 1.4459 0.0975906
Spine1  8.85012 1.96012 -2.58218
HEad  -2.7045 -1.84168 3.18637
LeftShoulder1  9.1854 -13.2018 -47.996
LeftArm  -1.30515 18.3571 -24.2246
LeftForeArm  20.4392 -18.5922 -4.58947
LeftHand  -0.25398 0.0180481 5.50724
RightShoulder  5.89237 9.94796 37.7686
RightArm  0.023597 -12.5567 34.6318
RightForeArm  -1.15817 22.322 5.00564
RightHand  -0.5577 -0.955586 -14.4613
LeftUpLeg  5.85893 4.83673 -2.91186
LeftLeg  6.93327 14.6713 -4.60972
LeftFoot  -11.9552 0.0787896 1.30628
LeftToes  1.06244e-005 4.65856e-005 -8.18505e-006
